<?xml version="1.0" encoding="UTF-8" standalone="no"?>
<svg
   width="1280"
   height="1280"
   viewBox="0 0 1280 1280"
   version="1.1"
   id="svg41"
   xml:space="preserve"
   xmlns="http://www.w3.org/2000/svg"
   xmlns:svg="http://www.w3.org/2000/svg"><defs
     id="defs2"><linearGradient
       id="gradient_0"
       gradientUnits="userSpaceOnUse"
       x1="1298.4418"
       y1="917.49109"
       x2="983.79895"
       y2="1456.4186"
       gradientTransform="matrix(1.0780692,0,0,1.0511869,-463.54841,-424.31589)"><stop
         offset="0"
         stop-color="#FABA2F"
         id="stop1" /><stop
         offset="1"
         stop-color="#F8E93F"
         id="stop2" /></linearGradient></defs><path
     id="path10"
     style="fill:#faba2f;fill-opacity:1;fill-rule:evenodd;stroke:none;stroke-width:3.04404;stroke-dasharray:none;stroke-opacity:1"
     d="m 749.05847,16.728881 c -5.95948,-0.162473 -11.65975,2.311365 -15.42381,6.693735 -5.33393,6.20879 -5.75365,14.99449 -1.03359,21.634806 -18.96293,21.137364 -37.46442,42.54303 -49.62063,67.628988 -13.10859,27.05124 -18.83682,58.38041 -24.56635,89.71157 2.60434,0 5.20828,0.002 7.55222,0.51506 2.34392,0.51364 4.42629,1.53967 6.50976,2.56693 6.25042,-30.13273 12.50164,-60.26514 25.17629,-86.28902 11.99827,-24.635128 29.75328,-45.588268 47.81522,-66.344495 6.7607,1.028245 13.58693,-1.438047 17.91018,-6.470889 6.68667,-7.78508 5.44939,-19.233968 -2.7636,-25.57242 -3.27377,-2.526656 -7.33567,-3.958784 -11.55569,-4.074265 z" /><path
     id="path10-4"
     style="fill:#faba2f;fill-opacity:1;fill-rule:evenodd;stroke:none;stroke-width:3.04404;stroke-dasharray:none;stroke-opacity:1"
     d="m 514.95481,20.408848 c 5.95951,-0.162475 11.65978,2.311362 15.42384,6.693734 5.33392,6.208793 5.75364,14.994491 1.03356,21.634806 18.96295,21.137364 37.46443,42.543038 49.62065,67.628992 13.10858,27.05125 18.83681,58.38041 24.56635,89.71157 -2.60433,0 -5.20829,8.3e-4 -7.55222,0.51506 -2.34393,0.51363 -4.4263,1.53965 -6.50976,2.56691 -6.25042,-30.13271 -12.50165,-60.26512 -25.17629,-86.28901 -11.99826,-24.635125 -29.75328,-45.588262 -47.81522,-66.344488 -6.76072,1.028249 -13.58695,-1.438044 -17.9102,-6.47089 -6.68666,-7.785081 -5.44938,-19.23397 2.76362,-25.57242 3.27377,-2.526654 7.33565,-3.958783 11.55567,-4.074264 z" /><path
     fill="url(#gradient_0)"
     d="m 985.61698,414.84569 c 54.72492,-4.97502 119.31802,7.47222 164.52652,38.21362 40.8818,27.79103 70.9981,64.43744 79.2654,112.48702 7.4268,43.11437 -5.0194,81.32907 -31.8993,116.31139 -34.2725,44.61594 -93.3808,71.17021 -150.2634,79.15694 C 929.48399,777.53708 814.568,702.7754 724.61668,639.99235 c 15.94972,-15.05005 48.14609,-42.61297 48.14609,-42.61297 38.44033,31.26801 142.82893,114.62947 260.33203,101.58431 185.9611,-37.55221 153.5698,-235.06934 -33.1464,-227.96417 -22.05221,1.94113 -44.21733,6.02271 -67.36851,14.32298 -144.2778,58.07791 -239.42494,139.87229 -328.81548,274.26032 30.49895,16.54395 58.52248,21.08064 92.56793,25.1063 -31.12695,11.32351 -76.62634,17.94319 -108.98429,10.35472 -11.17616,17.1995 -15.87384,34.29982 -21.93107,51.84375 58.13846,32.61429 98.02723,30.2026 168.51353,27.98548 -59.64565,43.77327 -113.71506,51.60359 -184.61854,20.05358 -8.38111,19.4488 -6.14766,45.1804 -6.702,63.39428 0,0 40.45621,20.57162 74.25318,25.45172 64.83181,9.36142 81.39511,-0.46531 125.20881,-7.95385 -72.44029,46.5897 -111.8284,64.6434 -187.67959,30.8705 23.60242,75.8631 128.76332,61.5295 166.19837,39.0415 29.10471,-18.23 36.22351,-31.9434 45.53547,-73.06106 C 776.71946,900.661 749.3325,843.79509 720.92896,778.61778 712.82891,763.64986 683.6726,701.2257 674.83248,688.53035 c -0.9756,2.462 68.986,47.08434 138.2065,181.75834 8.13095,15.81201 18.26055,42.16179 20.89515,59.91128 7.19973,48.52315 -9.8457,104.15043 -38.29262,144.54703 -9.65265,13.7022 -20.06615,22.4316 -31.96731,33.6475 -23.83636,22.4748 -54.82703,37.2965 -74.59793,63.1404 -21.9399,28.6964 -26.4596,62.3116 -37.84974,93.4836 -17.44744,-62.6883 -25.93609,-96.1745 -83.67029,-133.7725 -56.59176,-37.9208 -92.35653,-94.2262 -99.2542,-160.13285 -8.20816,-78.44654 39.40665,-178.99112 82.03956,-244.74714 81.8306,-126.18932 205.79218,-235.74644 352.36481,-289.84636 26.39148,-9.74015 54.5772,-18.65471 82.91057,-21.67396 z"
     id="path2"
     style="display:inline;fill:url(#gradient_0);fill-opacity:1;stroke:none;stroke-width:4.05872;stroke-dasharray:none;stroke-opacity:1" /><defs
     id="defs4" /><path
     id="path9"
     style="display:inline;fill:#faba2f;fill-opacity:1;stroke:none;stroke-width:4.05872;stroke-dasharray:none;stroke-opacity:1"
     d="m 606.4262,196.04772 c 23.16977,-3.21622 34.2827,-4.28861 57.56261,-0.9486 7.11151,0.92164 25.17809,5.15824 37.75782,12.27085 21.188,11.33019 35.73718,24.32823 47.68217,38.89883 12.66151,17.54668 18.31535,36.68938 22.48166,57.1414 10.4912,79.98059 -65.94774,206.35492 -125.3172,267.67732 -74.82505,77.16564 -162.06455,138.59461 -264.37922,178.4637 -95.71338,37.28579 -189.43492,31.48409 -270.5887,-33.89518 C 42.024063,659.59821 34.643763,558.91583 95.919911,494.23727 151.4283,435.64672 248.6214,409.73611 329.20398,429.25087 c 66.76339,17.24252 133.37688,51.25073 189.92209,88.60648 16.3459,10.77779 24.46527,18.33375 39.23384,31.26214 -19.75369,18.00377 -29.53646,26.10916 -45.37564,37.89624 C 429.51959,535.90071 351.57453,473.70125 243.14464,490.67036 95.459752,513.78387 73.530721,708.14035 282.53142,706.41028 342.05678,701.74205 412.47599,673.04143 464.20056,639.49068 568.85571,571.58836 654.02309,489.68343 697.65519,372.85573 720.1802,312.45976 694.2719,251.11971 621.15944,256.73814 c -93.65524,14.44861 -68.92253,141.78461 -56.13565,192.56832 7.61137,29.53877 14.02655,50.83452 20.4963,74.15544 -14.65387,-19.36946 -41.62939,-51.06946 -52.76173,-72.10838 -30.7733,-53.76972 -50.92394,-109.57067 -30.17188,-168.03556 11.86982,-37.12393 41.51867,-65.59873 85.74804,-82.26014 6.89051,-2.34503 9.99717,-3.27909 18.09168,-5.0101 z" /><style
     type="text/css"
     id="style1">
	.st0{fill-rule:evenodd;clip-rule:evenodd;}
</style><style
     type="text/css"
     id="style1-0">
	.st0{fill-rule:evenodd;clip-rule:evenodd;}
</style></svg>
