<?xml version="1.0" encoding="UTF-8" standalone="no"?>
<svg
   width="1280"
   height="1280"
   viewBox="0 0 1280 1280"
   version="1.1"
   id="svg41"
   xml:space="preserve"
   xmlns="http://www.w3.org/2000/svg"
   xmlns:svg="http://www.w3.org/2000/svg"><defs
     id="defs2"><linearGradient
       id="gradient_0"
       gradientUnits="userSpaceOnUse"
       x1="1379.5055"
       y1="783.15698"
       x2="911.28723"
       y2="1513.9799"
       gradientTransform="matrix(1.0491407,0,0,1.0491407,-413.65234,-399.45737)"><stop
         offset="0"
         stop-color="#FABA2F"
         id="stop1" /><stop
         offset="1"
         stop-color="#F8E93F"
         id="stop2" /></linearGradient></defs><g
     id="layer1"
     transform="matrix(0.83648137,0,0,0.83648137,1.022284,81.421889)"><path
       id="path10"
       style="fill:#000000;fill-opacity:1;fill-rule:evenodd;stroke:#faba2f;stroke-width:3.58645;stroke-dasharray:none;stroke-opacity:1"
       d="m 876.51656,-48.647853 a 21.181169,21.181169 0 0 0 -17.03499,7.799749 21.181169,21.181169 0 0 0 -1.14155,25.209551 c -20.9438,24.6299174 -41.37795,49.572473 -54.804,78.803417 -14.47791,31.52095 -20.8045,68.026666 -27.13255,104.534716 2.87639,0 5.75235,0.002 8.34113,0.60017 2.58877,0.5985 4.88866,1.79406 7.18977,2.99105 6.90334,-35.11158 13.80756,-70.22281 27.8062,-100.546658 13.2516,-28.705616 32.8613,-53.120867 52.80998,-77.30667 a 21.181169,21.181169 0 0 0 19.78108,-7.540083 21.181169,21.181169 0 0 0 -3.05229,-29.797782 21.181169,21.181169 0 0 0 -12.76278,-4.74746 z" /><path
       class="st0"
       d="m 905.98411,-64.417959 v 0 c 1.23336,1.004183 1.46253,3.241724 0.45836,4.475085 l -8.35244,10.258657 c -1.00418,1.233361 -3.24172,1.462539 -4.47508,0.458357 -1.23337,-1.004182 -1.46254,-3.241724 -0.45836,-4.475085 l 8.35243,-10.258656 c 1.00419,-1.233361 3.24172,-1.46254 4.47509,-0.458358 z"
       id="path1"
       style="fill:#1b24fe;fill-opacity:1;stroke:#faba2f;stroke-width:2.39097;stroke-dasharray:none;stroke-opacity:1" /><path
       class="st0"
       d="m 898.07737,-9.4235366 v 0 c 1.00418,-1.2333604 3.24172,-1.4625384 4.47508,-0.4583564 l 10.25866,8.3524298 c 0.49629,1.07967582 1.04174,2.8991207 0.0376,4.132481 -1.00418,1.2333604 -3.24173,1.4625396 -4.47509,0.4583573 l -10.25865,-8.3524308 c -1.23337,-1.0041811 -1.04175,-2.8991206 -0.0376,-4.1324809 z"
       id="path3"
       style="fill:#1b24fe;fill-opacity:1;stroke:#faba2f;stroke-width:2.39097;stroke-dasharray:none;stroke-opacity:1" /><path
       class="st0"
       d="m 838.96313,-57.55339 v 0 c 1.00418,-1.233361 3.24172,-1.462539 4.47509,-0.458356 l 10.25865,8.35243 c 1.23337,1.004182 1.46254,3.241725 0.45836,4.475086 -1.00418,1.23336 -3.24173,1.462539 -4.47508,0.458357 l -10.25866,-8.352432 c -1.23336,-1.004182 -1.46254,-3.241725 -0.45836,-4.475085 z"
       id="path4"
       style="fill:#1b24fe;fill-opacity:1;stroke:#faba2f;stroke-width:2.39097;stroke-dasharray:none;stroke-opacity:1" /><path
       class="st0"
       d="m 869.63871,-77.626329 v 0 c 1.48596,-0.165498 3.14011,1.181288 3.27929,2.669943 l 1.37237,13.39893 c 0.13917,1.488656 -1.19579,3.1283 -2.66994,3.279288 -1.48866,0.139174 -3.1283,-1.195797 -3.27929,-2.669943 l -1.37238,-13.39893 c -0.15098,-1.474145 1.1958,-3.128299 2.66995,-3.279288 z"
       id="path5"
       style="fill:#1b24fe;fill-opacity:1;stroke:#faba2f;stroke-width:2.39097;stroke-dasharray:none;stroke-opacity:1" /><path
       class="st0"
       d="m 906.11099,-30.196513 v 0 c -0.15369,-1.50047 1.18128,-3.140114 2.66994,-3.279288 l 13.39893,-1.372375 c 1.50047,-0.153684 3.14011,1.181288 3.27928,2.669943 0.151,1.474146 -1.19579,3.1283 -2.66993,3.279289 l -13.39894,1.372374 c -1.48595,0.165499 -3.14011,-1.181287 -3.27928,-2.669943 z"
       id="path6"
       style="fill:#1b24fe;fill-opacity:1;stroke:#faba2f;stroke-width:2.39097;stroke-dasharray:none;stroke-opacity:1" /><path
       class="st0"
       d="m 881.01523,22.408847 v 0 c -1.50047,0.153685 -3.14011,-1.181287 -3.27928,-2.669942 L 876.36357,6.3399747 c -0.15369,-1.5004699 1.18129,-3.1401134 2.66995,-3.2792873 1.47415,-0.1509884 3.12829,1.1957967 3.27928,2.6699426 l 1.37238,13.39893 c 0.1655,1.485959 -1.18129,3.140113 -2.66995,3.279287 z"
       id="path7"
       style="fill:#1b24fe;fill-opacity:1;stroke:#faba2f;stroke-width:2.39097;stroke-dasharray:none;stroke-opacity:1" /><path
       class="st0"
       d="m 844.55747,-25.009151 v 0 c 0.13917,1.488656 -1.1958,3.128299 -2.66995,3.279288 l -13.39893,1.372375 c -1.48596,0.165497 -3.14011,-1.181288 -3.27929,-2.669943 -0.16549,-1.48596 1.18129,-3.140114 2.66995,-3.279288 l 13.39893,-1.372375 c 1.48596,-0.165498 3.1256,1.169473 3.27929,2.669943 z"
       id="path8"
       style="fill:#1b24fe;fill-opacity:1;stroke:#faba2f;stroke-width:2.39097;stroke-dasharray:none;stroke-opacity:1" /></g><g
     id="layer1-9"
     transform="matrix(-0.83648137,0,0,0.83648137,1273.0282,84.840727)"><path
       id="path10-4"
       style="fill:#000000;fill-opacity:1;fill-rule:evenodd;stroke:#faba2f;stroke-width:3.58645;stroke-dasharray:none;stroke-opacity:1"
       d="m 902.7041,-48.447006 a 21.181169,21.181169 0 0 0 -17.035,7.799748 21.181169,21.181169 0 0 0 -1.14154,25.209551 c -20.9438,24.6299171 -41.37795,49.572474 -54.804,78.803417 -14.4779,31.520952 -20.8045,68.02667 -27.13255,104.53471 2.87639,0 5.75235,0.001 8.34113,0.60018 2.58877,0.5985 4.88867,1.79405 7.18977,2.99104 6.90334,-35.11158 13.80756,-70.2228 27.8062,-100.546649 13.2516,-28.70562 32.8613,-53.12087 52.80998,-77.3066723 a 21.181169,21.181169 0 0 0 19.78109,-7.5400827 21.181169,21.181169 0 0 0 -3.0523,-29.797782 21.181169,21.181169 0 0 0 -12.76278,-4.74746 z" /><path
       class="st0"
       d="m 932.17165,-64.217112 v 0 c 1.23336,1.004181 1.46254,3.241724 0.45836,4.475085 l -8.35244,10.258656 c -1.00418,1.233361 -3.24172,1.462539 -4.47508,0.458357 -1.23336,-1.004182 -1.46254,-3.241725 -0.45835,-4.475085 l 8.35242,-10.258657 c 1.00419,-1.23336 3.24172,-1.462538 4.47509,-0.458356 z"
       id="path1-8"
       style="clip-rule:evenodd;fill:#1b24fe;fill-opacity:1;fill-rule:evenodd;stroke:#faba2f;stroke-width:2.39097;stroke-dasharray:none;stroke-opacity:1" /><path
       class="st0"
       d="m 924.26491,-9.2226899 v 0 c 1.00418,-1.2333601 3.24173,-1.4625401 4.47508,-0.4583573 l 10.25866,8.3524308 c 0.49629,1.07967576 1.04175,2.8991207 0.0376,4.1324809 -1.00418,1.2333605 -3.24172,1.4625384 -4.47509,0.4583563 L 924.30248,-5.090209 c -1.23337,-1.0041821 -1.04174,-2.8991205 -0.0376,-4.1324809 z"
       id="path3-8"
       style="clip-rule:evenodd;fill:#1b24fe;fill-opacity:1;fill-rule:evenodd;stroke:#faba2f;stroke-width:2.39097;stroke-dasharray:none;stroke-opacity:1" /><path
       class="st0"
       d="m 865.15067,-57.352543 v 0 c 1.00418,-1.233361 3.24173,-1.462539 4.47509,-0.458358 l 10.25865,8.352432 c 1.23337,1.004182 1.46255,3.241725 0.45836,4.475085 -1.00418,1.233361 -3.24173,1.462539 -4.47508,0.458357 l -10.25866,-8.352432 c -1.23336,-1.004182 -1.46254,-3.241724 -0.45836,-4.475084 z"
       id="path4-2"
       style="clip-rule:evenodd;fill:#1b24fe;fill-opacity:1;fill-rule:evenodd;stroke:#faba2f;stroke-width:2.39097;stroke-dasharray:none;stroke-opacity:1" /><path
       class="st0"
       d="m 895.82625,-77.425482 v 0 c 1.48596,-0.165499 3.14011,1.181286 3.27929,2.669942 l 1.37237,13.39893 c 0.13917,1.488657 -1.19579,3.1283 -2.66994,3.279288 -1.48866,0.139175 -3.1283,-1.195797 -3.27929,-2.669942 l -1.37238,-13.398931 c -0.15098,-1.474145 1.1958,-3.1283 2.66995,-3.279287 z"
       id="path5-4"
       style="clip-rule:evenodd;fill:#1b24fe;fill-opacity:1;fill-rule:evenodd;stroke:#faba2f;stroke-width:2.39097;stroke-dasharray:none;stroke-opacity:1" /><path
       class="st0"
       d="m 932.29853,-29.995666 v 0 c -0.15369,-1.50047 1.18129,-3.140114 2.66994,-3.279289 l 13.39894,-1.372374 c 1.50046,-0.153684 3.1401,1.181287 3.27928,2.669943 0.15099,1.474146 -1.19579,3.128299 -2.66994,3.279288 l -13.39894,1.372374 c -1.48595,0.165498 -3.1401,-1.181287 -3.27928,-2.669942 z"
       id="path6-5"
       style="clip-rule:evenodd;fill:#1b24fe;fill-opacity:1;fill-rule:evenodd;stroke:#faba2f;stroke-width:2.39097;stroke-dasharray:none;stroke-opacity:1" /><path
       class="st0"
       d="m 907.20277,22.609693 v 0 c -1.50046,0.153685 -3.1401,-1.181286 -3.27928,-2.669942 L 902.55112,6.5408214 c -0.15369,-1.5004698 1.18128,-3.1401134 2.66994,-3.2792883 1.47415,-0.1509874 3.12829,1.1957978 3.27928,2.6699426 l 1.37238,13.3989303 c 0.1655,1.485959 -1.18129,3.140113 -2.66995,3.279287 z"
       id="path7-5"
       style="clip-rule:evenodd;fill:#1b24fe;fill-opacity:1;fill-rule:evenodd;stroke:#faba2f;stroke-width:1.25423;stroke-dasharray:none;stroke-opacity:1" /><path
       class="st0"
       d="m 870.74501,-24.808305 v 0 c 0.13917,1.488656 -1.1958,3.1283 -2.66995,3.279288 l -13.39893,1.372374 c -1.48596,0.165499 -3.14011,-1.181286 -3.27929,-2.669943 -0.16549,-1.485959 1.18129,-3.140113 2.66995,-3.279287 l 13.39893,-1.372375 c 1.48596,-0.165498 3.1256,1.169474 3.27929,2.669943 z"
       id="path8-1"
       style="clip-rule:evenodd;fill:#1b24fe;fill-opacity:1;fill-rule:evenodd;stroke:#faba2f;stroke-width:2.39097;stroke-dasharray:none;stroke-opacity:1" /></g><path
     fill="url(#gradient_0)"
     d="m 952.75901,428.77102 c 50.55809,-4.84913 110.23319,7.28313 151.99949,37.24659 37.7691,27.08776 65.5923,62.80681 73.2301,109.64045 6.8613,42.02333 -4.6372,79.27097 -29.4704,113.36804 -31.6631,43.48689 -86.2709,69.36919 -138.8224,77.15381 -108.79582,16.10431 -219.98375,-60.26264 -303.08618,-121.45692 11.69791,-12.23927 23.17551,-22.57226 35.81766,-33.79387 69.57901,52.65532 185.29923,129.8511 276.23872,104.98646 184.2816,-50.35875 119.8329,-247.48599 -52.66684,-240.56062 -6.93482,0.27802 -14.12143,1.86957 -20.93036,3.27752 -151.51689,39.59876 -282.17688,158.51467 -360.50887,291.32434 28.17677,16.1253 54.0234,18.81109 85.47664,22.73488 -28.75695,11.03696 -69.23909,10.45993 -99.13331,3.06349 -8.19903,16.15677 -15.32479,32.10371 -22.74327,48.5962 53.71181,31.78896 79.46506,34.10756 140.289,39.6785 -49.94959,17.75146 -105.26973,18.87404 -155.73655,2.42351 -3.69087,14.44667 -6.79633,26.79506 -9.65734,41.44106 -0.0346,1.35339 -0.46477,3.09497 0.52352,4.06018 35.94776,34.93638 85.70011,53.74746 134.71807,60.72429 17.70949,2.51792 34.95736,3.99721 52.27867,6.92431 -66.92468,17.91926 -113.00818,23.47976 -180.50675,0.87076 21.80534,73.9434 99.67781,129.2542 171.47365,79.8816 34.01315,-23.3959 52.96063,-56.7481 61.56358,-96.8252 14.95025,-69.57902 -18.61721,-143.04342 -49.71794,-202.62275 -7.48331,-14.58914 -42.16056,-76.01056 -50.3276,-88.38465 -0.90131,2.3997 66.31073,48.89971 130.26079,180.16568 7.51185,15.41187 16.87019,41.09484 19.30419,58.39517 6.65155,47.29526 -9.09605,101.51485 -35.37702,140.88915 -8.9177,13.3555 -18.53832,21.864 -29.53332,32.7961 -22.02146,21.906 -50.6525,36.3527 -68.91804,61.5426 -20.26941,27.9701 -24.44498,60.7347 -34.96787,91.1179 -16.11899,-61.102 -23.96132,-93.7408 -77.29964,-130.3873 -52.28287,-36.9612 -85.32451,-91.8418 -91.69699,-156.08061 -7.58319,-76.46138 36.40623,-174.46161 75.79307,-238.55362 75.60003,-122.996 190.12318,-229.78069 325.53577,-282.51156 24.38203,-9.49367 50.4217,-18.18265 76.59777,-21.12549 z"
     id="path2"
     style="display:inline;fill:url(#gradient_0);stroke:#000000;stroke-width:4;stroke-dasharray:none;stroke-opacity:1" /><defs
     id="defs4" /><path
     id="path9"
     style="display:inline;fill:#000000;fill-opacity:1;stroke:#faba2f;stroke-width:4;stroke-dasharray:none;stroke-opacity:1"
     d="m 605.01712,217.65768 c 21.40562,-3.13484 27.80643,-2.89144 49.31381,0.36405 6.57004,0.89833 14.97995,4.67405 15.25451,4.57635 2.88513,1.54014 12.94639,6.67988 15.11812,8.2431 7.85806,4.83444 12.40084,8.31549 19.69237,14.06898 7.79511,7.59998 13.05131,13.31674 19.61893,22.1012 4.85752,7.67656 7.78462,12.54457 11.75037,20.66072 1.24848,2.2651 2.24517,4.94798 3.32578,7.32009 3.48314,9.30168 6.75647,17.2424 8.82328,26.98892 24.02531,84.40756 -53.51668,199.30735 -108.36575,259.07794 -69.12788,75.2129 -149.72497,135.08736 -244.2494,173.94753 -88.42577,36.34224 -175.01136,30.68737 -249.9861,-33.03744 -64.301831,-54.63924 -71.120196,-152.77377 -14.50961,-215.81559 51.28199,-57.10787 141.0748,-82.36279 215.52183,-63.34186 61.68003,16.80618 123.22157,49.95378 175.46143,86.36421 15.10133,10.50505 30.01067,20.32815 43.65475,32.92938 -8.14973,9.38666 -24.70097,25.72703 -34.34572,32.63877 C 452.77107,543.10008 361.5252,471.01572 261.35115,487.55542 c -37.80578,6.24238 -78.85761,26.97866 -100.36185,59.8283 -71.134882,108.66789 63.0009,202.87024 165.03613,179.45342 55.65062,-13.88014 106.09645,-38.95459 153.88271,-71.65631 96.68671,-66.184 196.59113,-165.24176 223.15538,-283.40858 1.85305,-9.96447 0.26229,-28.58279 -1.5947,-38.36078 -7.15514,-37.61799 -43.02526,-77.0405 -84.38763,-68.54351 -81.193,19.05974 -63.41606,134.24748 -52.89142,197.49178 3.5954,17.19332 15.96544,58.13917 19.79481,74.85618 -13.53812,-18.87929 -33.14535,-56.49917 -43.43007,-77.00568 -24.50163,-48.85639 -45.36291,-105.02158 -26.19092,-158.45433 14.89465,-41.51344 35.98071,-60.03619 75.15877,-79.23652 6.36587,-2.28568 8.01656,-3.17451 15.49476,-4.86171 z" /><style
     type="text/css"
     id="style1">
	.st0{fill-rule:evenodd;clip-rule:evenodd;}
</style><style
     type="text/css"
     id="style1-0">
	.st0{fill-rule:evenodd;clip-rule:evenodd;}
</style></svg>
